<?xml version="1.0" encoding="UTF-8"?>
<!DOCTYPE svg PUBLIC "-//W3C//DTD SVG 1.1//EN" "http://www.w3.org/Graphics/SVG/1.1/DTD/svg11.dtd">
<svg version="1.1" xmlns="http://www.w3.org/2000/svg" xmlns:xlink="http://www.w3.org/1999/xlink" x="0" y="0" width="600" height="590" viewBox="0, 0, 600, 590">
  <g id="layer0">
    <path d="M289.172,9.916 C289.673,10.018 290.865,9.861 291.4,10.314 C291.735,10.844 296.41,11.122 302,10.944 C307.5,10.769 317.625,11.094 324.5,11.665 C331.375,12.236 339.362,12.722 342.25,12.744 C345.138,12.767 347.5,13.198 347.5,13.702 C347.5,14.206 347.977,14.323 348.56,13.963 C349.96,13.098 359.518,12.504 361.765,13.143 C362.735,13.418 363.273,14.059 362.96,14.565 C362.646,15.072 363.459,15.398 364.766,15.29 C368.926,14.946 428.267,34.47 431.883,37.373 C432.498,37.866 434.466,38.583 436.259,38.966 C438.051,39.349 439.27,40.063 438.968,40.552 C438.666,41.041 439.674,41.753 441.209,42.134 C446.289,43.396 450.59,45.546 449.986,46.523 C449.637,47.087 447.717,46.631 445.349,45.423 C443.125,44.289 441.13,43.537 440.914,43.752 C440.245,44.421 448.374,48.617 449.734,48.304 C451.329,47.938 465.666,57.001 464.824,57.842 C464.488,58.178 465.066,58.777 466.107,59.173 C470.003,60.656 485.097,69.751 487.604,72.127 C489.037,73.485 491.624,75.361 493.354,76.298 C496.215,77.846 515.182,95.845 520,101.583 L522,103.966 L520,102.567 C518.9,101.798 519.575,102.747 521.5,104.676 C523.425,106.604 527.925,111.702 531.5,116.003 C535.075,120.304 538.988,124.871 540.196,126.153 C543.654,129.822 551.396,142.223 552.12,145.253 C552.48,146.764 553.276,148.649 553.888,149.442 C554.735,150.541 554.703,150.705 553.75,150.133 C552.043,149.108 552.182,150.084 554.174,153.125 C557.139,157.65 559.36,161.774 564.878,173 C571.797,187.074 573.5,191.118 573.5,193.475 C573.5,194.524 573.95,195.66 574.5,196 C575.05,196.34 575.5,197.662 575.5,198.937 C575.5,201.103 576.765,204.811 579.957,212 C580.69,213.65 581.597,216.462 581.974,218.25 C582.351,220.038 583.073,221.5 583.579,221.5 C584.086,221.5 584.5,222.202 584.5,223.059 C584.5,223.916 584.05,224.34 583.5,224 C581.919,223.023 582.31,224.822 585,230.904 C587.62,236.829 588.469,241.412 586.407,238.5 C585.293,236.926 585.351,238.197 587.626,265 C589.207,283.617 589.322,305.635 587.89,315.5 C587.212,320.175 586.171,329.221 585.578,335.601 C584.985,341.982 584.064,348.507 583.531,350.101 C582.998,351.696 582.619,353.675 582.689,354.5 C582.975,357.896 582.443,360.583 581.589,360.055 C580.546,359.41 578.917,366.828 579.329,370.341 C579.498,371.777 579.197,372.431 578.552,372.032 C577.973,371.675 577.5,371.524 577.5,371.698 C577.5,371.871 577.079,373.481 576.564,375.276 C575.866,377.71 575.93,378.388 576.814,377.945 C577.466,377.619 577.219,377.992 576.266,378.775 C575.312,379.557 574.78,380.446 575.084,380.75 C575.565,381.231 574.212,386.612 572.003,393 C571.424,394.675 571.505,394.756 572.5,393.5 C573.514,392.22 573.601,392.269 573.094,393.832 C572.767,394.839 572.5,395.878 572.5,396.141 C572.5,396.403 571.98,396.297 571.345,395.905 C570.655,395.478 570.461,395.629 570.864,396.28 C571.822,397.831 568.765,405.182 564.845,410.752 C563.005,413.366 561.5,415.997 561.5,416.598 C561.5,417.199 560.655,418.886 559.622,420.346 C557.738,423.008 552.209,434.347 551.064,437.893 C550.728,438.934 550.167,439.501 549.818,439.152 C549.47,438.803 548.58,439.019 547.842,439.631 C545.861,441.275 546.212,439.453 548.336,437.064 C550.099,435.082 557.44,422.349 556.087,423.62 C555.724,423.961 553.018,427.745 550.073,432.029 C545.981,437.985 544.988,440.112 545.86,441.059 C546.663,441.933 547.443,441.997 548.5,441.275 C549.325,440.711 548.737,441.432 547.194,442.875 C545.651,444.319 544.645,445.5 544.959,445.5 C545.272,445.5 544.397,447.188 543.014,449.25 C541.631,451.312 538.653,455.821 536.397,459.269 C534.142,462.717 531.442,465.996 530.398,466.555 C529.354,467.113 528.5,468.207 528.5,468.984 C528.5,470.783 521.909,475.871 520.615,475.071 C520.081,474.741 517.261,477.177 514.349,480.485 C511.438,483.793 508.503,486.5 507.827,486.5 C507.152,486.5 506.151,487.288 505.603,488.25 C504.875,489.528 504.216,489.73 503.156,489 C502.358,488.45 499.436,486.48 496.664,484.621 C491.635,481.251 491.627,481.236 493.245,478.621 C494.319,476.886 494.399,476.423 493.483,477.25 C492.723,477.938 491.259,478.5 490.232,478.5 C488.866,478.5 489.559,477.492 492.811,474.75 C495.257,472.688 498.072,469.662 499.068,468.026 C500.063,466.39 502.48,463.58 504.439,461.781 C506.397,459.982 507.524,458.507 506.941,458.505 C505.367,458.498 503.241,460.479 499.438,465.5 C495.057,471.283 494.589,471.757 491,474.049 C488.791,475.461 488.327,475.55 489.241,474.391 C489.924,473.525 490.262,472.52 489.991,472.158 C489.721,471.796 489.806,471.731 490.181,472.014 C490.965,472.607 496.5,467.562 496.5,466.254 C496.5,465.774 496.127,465.613 495.671,465.895 C494.367,466.7 494.971,462.843 496.422,461.094 C497.139,460.23 498.126,459.769 498.613,460.07 C499.101,460.371 499.5,459.972 499.5,459.181 C499.5,458.391 500.245,457.127 501.156,456.372 C502.067,455.618 506.905,450.164 511.906,444.253 C524.468,429.408 534.906,414.458 541.058,402.5 C542.897,398.925 544.424,396.701 544.451,397.559 C544.478,398.416 543.839,399.991 543.032,401.059 C542.224,402.126 541.549,403.72 541.532,404.6 C541.514,405.48 540.229,407.955 538.675,410.1 C537.121,412.245 535.818,414.225 535.78,414.5 C535.559,416.098 530.114,426.544 528.681,428.122 C526.023,431.048 519.848,439.926 518.045,443.413 C517.148,445.147 515.984,446.299 515.457,445.974 C514.931,445.648 514.5,446.069 514.5,446.909 C514.5,447.749 513.263,449.154 511.75,450.032 C510.237,450.909 509.875,451.354 510.944,451.021 C512.839,450.429 512.842,450.465 511.039,452.457 C510.022,453.581 509.501,454.5 509.88,454.5 C510.26,454.5 510.089,455.4 509.5,456.5 C507.29,460.629 509.527,458.306 512.148,453.75 C515.129,448.569 523.443,439.347 524.529,440.018 C524.901,440.248 526.45,437.975 527.972,434.968 C530.765,429.448 531.881,428.034 530.907,431.25 C530.616,432.212 531.417,431.26 532.689,429.134 C533.96,427.008 537.114,421.968 539.697,417.935 C544.753,410.04 549.5,400.623 549.5,398.487 C549.5,397.761 549.801,397.468 550.169,397.835 C551.075,398.742 555.3,391.228 557.614,384.593 C559.905,378.026 559.936,377.581 557.926,380.059 C557.06,381.126 556.602,381.494 556.908,380.875 C557.213,380.256 557.704,377.745 557.999,375.294 C558.293,372.843 560.326,365.771 562.516,359.579 C567.066,346.713 569.551,336.81 569.387,332.188 C569.319,330.262 568.578,332.366 567.515,337.5 C565.708,346.23 563.586,352.92 562.856,352.19 C562.63,351.963 562.868,350.661 563.387,349.297 C564.478,346.428 564.816,344.574 567.459,327 C568.534,319.85 569.723,308.927 570.101,302.727 C570.478,296.527 570.968,291.635 571.189,291.856 C571.41,292.077 571.637,296.7 571.693,302.129 C571.778,310.315 571.916,311.147 572.505,307 C574.939,289.855 575.212,259.619 573.014,250.574 C572.27,247.508 571.393,242.75 571.066,240 L570.471,235 L572.182,238 C573.123,239.65 573.772,242.012 573.625,243.25 C573.477,244.488 573.811,245.5 574.365,245.5 C574.92,245.5 575.555,246.962 575.777,248.75 L576.18,252 L576.34,248.5 C576.513,244.721 574.93,236.679 571.52,224 C570.336,219.6 568.933,214.2 568.402,212 C567.87,209.8 566.517,205.198 565.394,201.774 C564.271,198.349 563.68,195.017 564.081,194.369 C564.559,193.595 564.376,193.458 563.547,193.971 C562.608,194.551 562.458,194.143 562.958,192.375 C563.481,190.53 563.394,190.334 562.567,191.5 C561.982,192.325 561.727,194.35 561.999,196 C562.396,198.401 562.31,198.6 561.568,197 C561.058,195.9 560.609,194.065 560.57,192.922 C560.532,191.78 559.429,188.18 558.121,184.922 C554.472,175.84 554.047,174.126 555.643,174.949 C556.389,175.334 556.126,174.94 555.059,174.074 C553.991,173.208 553.459,172.5 553.877,172.5 C554.295,172.5 553.706,171.193 552.568,169.596 C551.431,167.998 550.5,166.456 550.5,166.169 C550.5,164.745 539.967,148.615 537.33,146 L534.304,143 L536.404,147 C537.56,149.2 539.262,152.125 540.187,153.5 C541.112,154.875 540.098,154.006 537.934,151.568 C535.77,149.13 532.803,145.08 531.341,142.568 C525.712,132.899 514.911,119.229 503.856,107.784 C498.961,102.715 495.962,99.228 497.192,100.034 C500.607,102.271 501.114,101.789 498.424,98.864 C494.291,94.371 499.158,97.567 506.49,104.162 C512.827,109.862 512.9,109.896 509.55,105.616 C507.663,103.205 503.744,99.712 500.84,97.854 C497.936,95.997 493.634,92.634 491.28,90.383 C483.998,83.417 473.996,75.195 467.353,70.715 C452.939,60.994 447.223,57.553 446.367,58.082 C445.87,58.389 444.009,57.764 442.232,56.693 C435.48,52.623 421.747,45.588 415.5,42.999 C408.181,39.966 402.15,36.517 402.883,35.784 C403.285,35.382 409.577,38.196 422.791,44.688 C423.776,45.172 424.96,45.334 425.422,45.048 C425.885,44.762 427.815,45.582 429.711,46.869 C434.405,50.054 443.247,54.813 447.5,56.443 C454.034,58.947 473.666,71.971 480.975,78.651 C489.034,86.017 488.886,84.442 480.748,76.25 C476.787,72.262 473.448,68.55 473.328,68 C472.949,66.265 458.102,55.5 456.087,55.5 C455.349,55.5 454.201,54.844 453.535,54.043 C451.531,51.628 437.527,44.365 436.317,45.113 C435.645,45.528 435.468,45.361 435.878,44.697 C436.276,44.053 435.311,42.936 433.582,42.043 C430.206,40.297 429.136,40.101 429.923,41.375 C430.22,41.856 427.659,40.768 424.232,38.956 C420.804,37.145 415.3,34.743 412,33.619 C408.7,32.495 401.5,29.943 396,27.948 C383.819,23.53 381.199,22.736 371,20.371 C358.07,17.372 349.148,17.351 357.75,20.34 L361,21.469 L357,20.889 C354.8,20.571 350.75,19.935 348,19.478 C345.25,19.02 340.075,18.606 336.5,18.558 C332.925,18.509 329.325,17.99 328.5,17.403 C326.942,16.296 340.614,16.786 349,18.138 C355.897,19.25 351.905,17.278 344.271,15.802 C340.272,15.028 335.755,14.142 334.233,13.832 C332.712,13.522 327.987,13.616 323.733,14.042 C317.166,14.699 316.498,14.926 319.301,15.542 C323.344,16.431 324.598,17.488 321.667,17.534 C309.952,17.721 295.381,17.558 294.766,17.234 C293.945,16.802 283.855,17.62 268.5,19.364 C249.802,21.488 214.899,30.428 212.942,33.594 C212.456,34.381 216.187,33.276 223.5,30.468 C229.85,28.03 244.855,24.71 252.809,23.984 C255.454,23.743 258.055,23.275 258.589,22.945 C259.123,22.615 265.948,22.168 273.757,21.952 C281.566,21.736 289.315,21.318 290.978,21.025 C293.517,20.576 293.652,20.641 291.82,21.437 C290.621,21.958 284.546,22.677 278.32,23.036 C272.094,23.394 261.825,24.548 255.5,25.599 C249.175,26.651 242.012,27.621 239.582,27.755 C236.882,27.905 234.985,28.539 234.703,29.385 C234.343,30.471 235.082,30.64 238.122,30.168 C240.859,29.743 241.265,29.809 239.5,30.393 C236.026,31.543 227.325,33.685 225.426,33.857 C224.56,33.936 223.066,34.787 222.105,35.75 C220.116,37.741 218.212,37.951 215.467,36.482 C213.328,35.337 202.708,38.609 196.5,42.325 C194.575,43.478 189.4,46.28 185,48.552 C180.6,50.825 176.071,53.543 174.936,54.592 C173.8,55.641 172.353,56.5 171.721,56.5 C171.088,56.5 170.089,57.4 169.5,58.5 C168.911,59.6 167.925,60.5 167.309,60.5 C166.693,60.5 164.714,61.625 162.911,63 C161.108,64.375 159.369,65.5 159.045,65.5 C158.722,65.5 156.658,66.691 154.458,68.146 C147.475,72.767 151.035,71.89 160.184,66.734 C175.939,57.857 187.936,52.218 191,52.249 C192.65,52.265 193.361,52.041 192.58,51.75 C191.286,51.267 202.658,46.508 205,46.552 C206.617,46.582 201.155,49.426 199.405,49.465 C198.528,49.484 197.035,50.356 196.088,51.403 C195.14,52.45 191.808,54.285 188.683,55.48 C176.056,60.309 146.403,79.306 132.774,91.297 C118.216,104.105 105.5,117.719 105.5,120.495 C105.5,121.164 104.162,123.401 102.527,125.466 C100.891,127.531 99.846,129.513 100.204,129.871 C100.562,130.228 99.737,131.754 98.371,133.26 C97.005,134.767 93.959,138.622 91.603,141.827 C89.247,145.031 87.141,147.474 86.922,147.255 C86.188,146.521 91.809,136.573 92.66,137.099 C93.508,137.623 93.893,136.135 93.552,133.65 C93.438,132.822 93.839,132.592 94.588,133.054 C95.384,133.546 95.551,133.392 95.068,132.611 C94.661,131.951 95.041,130.323 95.914,128.991 C96.786,127.66 97.5,126.25 97.5,125.859 C97.5,124.934 89.539,132.774 89.517,133.721 C89.502,134.361 87.962,136.799 81.268,146.771 C80.245,148.296 79.724,150.053 80.109,150.676 C80.538,151.37 80.362,151.533 79.655,151.095 C78.624,150.458 78.051,151.653 78.382,153.75 C78.447,154.163 78.027,154.5 77.449,154.5 C76.871,154.5 75.735,156.187 74.925,158.25 C74.115,160.312 72.244,164.32 70.767,167.155 C68.49,171.528 67.907,172.071 66.928,170.732 C65.918,169.351 65.537,169.51 63.887,172.003 C62.849,173.571 59.882,179.836 57.294,185.927 C54.706,192.017 52.569,196.492 52.544,195.872 C52.52,195.252 53.199,193.07 54.054,191.024 C54.909,188.978 55.446,186.56 55.247,185.652 C55.047,184.743 53.28,189.175 51.319,195.5 C45.446,214.443 44.314,218.647 44.921,219.255 C45.876,220.21 46.275,219.301 48.271,211.615 C50.261,203.955 52.817,200.774 53.997,204.49 C54.348,205.595 54.295,207.512 53.879,208.75 C53.463,209.988 53.026,212.575 52.909,214.5 C52.72,217.592 50.359,231.544 49.102,237 C48.442,239.862 46.675,250.342 46.108,254.75 C45.48,259.636 47.205,259.636 48.085,254.75 C48.457,252.688 49.154,250.502 49.634,249.893 C50.114,249.285 50.927,246.81 51.441,244.393 C52.631,238.799 56.935,221.822 58.287,217.387 C58.856,215.524 59.594,212.762 59.929,211.25 C60.264,209.738 61.028,208.5 61.626,208.5 C62.253,208.5 62.428,209.241 62.038,210.25 C60.357,214.601 55.428,235.02 53.649,245 C49.413,268.771 48.753,277.863 49.84,297.5 C50.098,302.175 50.098,304.762 49.839,303.25 C49.579,301.738 48.899,300.5 48.327,300.5 C47.754,300.5 47.559,301.212 47.893,302.082 C48.227,302.952 48.5,304.778 48.5,306.141 C48.5,307.538 48.936,308.348 49.5,308 C50.05,307.66 50.5,308.309 50.5,309.441 C50.5,310.651 49.848,311.5 48.92,311.5 C47.576,311.5 47.433,312.505 47.958,318.25 C48.554,324.756 49.845,330.807 51.533,335 C51.976,336.1 53.13,340.6 54.097,345 C55.065,349.4 57.132,356.572 58.69,360.938 C60.249,365.304 61.176,369.224 60.75,369.65 C60.079,370.321 56.134,363.009 53.926,357 C53.309,355.322 53.126,355.265 52.792,356.646 C52.573,357.551 53.992,361.358 55.947,365.106 C57.901,368.854 59.514,372.839 59.531,373.961 C59.548,375.082 60.671,377.8 62.026,380 C65.797,386.122 64.964,386.399 60.835,380.396 C58.819,377.466 56.315,372.803 55.271,370.034 C52.559,362.845 49.869,354.517 49.064,350.819 C48.683,349.07 47.725,347.102 46.936,346.447 C45.406,345.177 44.972,340.944 46.288,340.131 C46.722,339.863 46.935,337.924 46.763,335.822 C46.59,333.72 46.245,326.375 45.997,319.5 C45.512,306.05 43.812,289.444 42.828,288.55 C42.496,288.247 42.443,294.975 42.711,303.5 C42.979,312.025 43.009,317.981 42.777,316.735 C42.546,315.49 42.008,314.686 41.58,314.95 C41.153,315.214 41.581,320.501 42.531,326.699 C43.48,332.897 44.067,338.465 43.834,339.071 C43.163,340.82 51.023,370.109 52.657,371.95 C53.121,372.472 53.5,373.887 53.5,375.093 C53.5,376.299 54.175,377.545 55,377.862 C55.825,378.178 56.5,379.069 56.5,379.841 C56.5,381.771 60.428,390.5 61.297,390.501 C61.684,390.501 62.064,391.617 62.143,392.98 C62.327,396.175 67.321,404.729 68.556,403.965 C69.075,403.644 69.5,404.028 69.5,404.819 C69.5,405.609 70.208,406.843 71.073,407.561 C71.938,408.279 73.626,410.645 74.823,412.819 C78.733,419.918 79.229,420.622 81.377,422.126 C83.513,423.622 84.453,426.207 82.4,424.938 C81.627,424.461 81.638,424.889 82.435,426.379 C83.808,428.945 84.669,429.173 83.835,426.75 C83.504,425.788 84.624,426.575 86.326,428.5 C90.142,432.819 90.353,431.653 86.852,425.588 L84.204,421 L89.401,426.36 C92.259,429.308 95.303,432.795 96.164,434.11 C97.025,435.424 98.169,436.5 98.705,436.5 C99.936,436.5 103.422,440.624 103.467,442.134 C103.485,442.757 105.3,444.893 107.5,446.881 C109.7,448.869 111.508,450.833 111.518,451.247 C111.538,452.095 119.022,458.5 119.992,458.5 C120.336,458.5 120.28,457.938 119.867,457.25 C119.3,456.306 119.469,456.265 120.558,457.085 C138.641,470.689 142.818,473.5 144.953,473.5 C147.438,473.5 150.51,475.246 160.5,482.336 C163.525,484.483 167.434,486.97 169.187,487.863 C170.939,488.755 172.676,489.976 173.047,490.575 C173.417,491.175 172.279,490.92 170.517,490.009 C168.755,489.098 167.069,488.598 166.768,488.898 C166.468,489.198 167.516,489.936 169.096,490.537 C174.545,492.608 178.57,494.763 178.019,495.314 C177.715,495.618 176.934,495.334 176.283,494.683 C174.682,493.082 172.157,493.136 173.153,494.75 C173.577,495.438 171.691,494.328 168.962,492.283 C166.233,490.239 164.086,488.182 164.19,487.712 C164.295,487.242 162.045,485.648 159.19,484.17 C152.824,480.874 150.5,479.128 150.5,477.64 C150.5,477.013 150.163,476.596 149.75,476.712 C149.337,476.829 147.988,476.363 146.75,475.677 C142.743,473.455 144.364,476.143 149.75,480.652 C166.806,494.93 184.262,505.078 203.5,511.901 C213.504,515.449 220.959,517.052 219.963,515.441 C219.644,514.923 219.859,514.5 220.441,514.5 C221.023,514.5 221.5,515.103 221.5,515.839 C221.5,516.576 222.625,517.692 224,518.318 C225.375,518.945 226.5,519.043 226.5,518.538 C226.5,518.032 227.737,518.264 229.25,519.053 C232.548,520.774 234.885,520.932 233.92,519.37 C233.492,518.678 233.76,518.436 234.611,518.745 C235.375,519.023 235.902,519.714 235.781,520.281 C235.577,521.245 242.667,523.059 250.386,524.017 C252.249,524.248 254.556,525.146 255.513,526.012 C257.006,527.363 257.332,527.381 257.809,526.137 C258.18,525.17 257.305,524.283 255.183,523.475 C253.432,522.809 250.2,521.476 248,520.513 C245.8,519.55 239.842,517.499 234.761,515.954 C229.679,514.409 225.695,512.972 225.907,512.76 C226.45,512.216 238.68,514.947 247,517.47 C250.85,518.637 256.046,520.182 258.546,520.902 C261.046,521.622 264.012,522.704 265.137,523.306 C266.262,523.908 269.166,524.496 271.591,524.614 C274.016,524.731 276.501,525.207 277.113,525.672 C277.725,526.137 280.875,526.98 284.113,527.547 C287.351,528.113 291.006,529.082 292.236,529.699 C293.555,530.362 300.423,530.859 308.983,530.911 C316.964,530.96 323.495,531.305 323.497,531.678 C323.502,532.807 312.644,533.795 306.823,533.194 C302.045,532.701 301.519,532.818 302.609,534.132 C303.617,535.346 306.281,535.591 316.521,535.411 C323.487,535.288 329.723,535.52 330.38,535.926 C331.036,536.331 333.414,536.352 335.663,535.972 C338.623,535.472 339.558,535.598 339.045,536.427 C337.612,538.746 365.898,534.501 375.5,530.956 C381.878,528.601 397.646,524.472 398.424,524.953 C398.845,525.213 401.535,524.535 404.402,523.445 C408.164,522.016 410.085,521.744 411.307,522.47 C412.726,523.312 412.599,523.436 410.527,523.237 C409.026,523.093 408.043,523.523 408.027,524.331 C408.012,525.063 406.875,526.285 405.5,527.046 C400.426,529.854 406.432,528.518 415.238,524.88 C426.557,520.205 434.496,516.187 441.155,511.766 C446.85,507.984 447.723,506.947 444.5,507.79 C443.351,508.09 442.5,507.821 442.501,507.156 C442.501,506.52 443.623,505.935 444.994,505.856 C446.365,505.777 447.238,506.115 446.934,506.606 C446.631,507.098 446.832,507.5 447.382,507.5 C448.516,507.5 449.845,505.654 450.147,503.658 C450.408,501.931 449.804,502.391 458.701,497.139 C462.936,494.638 466.151,493.246 465.844,494.046 C465.537,494.846 464.659,495.5 463.893,495.5 C463.127,495.5 462.613,495.838 462.75,496.25 C462.888,496.663 462.648,497 462.217,497 C461.412,497 458.636,501.733 459.087,502.336 C459.225,502.521 462.065,500.861 465.398,498.647 C468.894,496.325 471.719,495.045 472.076,495.623 C472.416,496.173 473.821,497.052 475.199,497.576 C476.63,498.12 477.49,499.084 477.205,499.825 C476.848,500.758 477.523,501.004 479.604,500.698 C483.417,500.138 483.259,501.108 478.75,505.91 C474.987,509.92 476.66,509.214 481.69,504.67 C483.324,503.195 485.018,502.485 486.004,502.863 C488.035,503.642 487.247,504.96 483.058,507.787 C474.796,513.366 465.641,520.969 466.526,521.516 C467.064,521.849 466.144,523.127 464.481,524.356 C462.818,525.586 461.022,526.323 460.49,525.994 C459.958,525.665 459.752,525.992 460.031,526.721 C460.346,527.541 459.292,528.517 457.272,529.28 C455.475,529.958 453.875,530.126 453.717,529.652 C453.56,529.179 450.859,530.062 447.715,531.616 C444.572,533.169 438.732,535.873 434.737,537.624 C430.743,539.375 427.678,541.011 427.926,541.26 C428.409,541.743 436.357,538.92 440.5,536.795 C441.875,536.089 443.45,535.533 444,535.558 C444.55,535.583 440.144,538.068 434.209,541.081 C428.274,544.094 423.659,546.948 423.953,547.425 C424.248,547.901 423.793,548.557 422.942,548.884 C421.926,549.274 421.611,549.053 422.022,548.239 C422.367,547.557 422.052,547.715 421.324,548.589 C419.806,550.411 409.366,554.028 402,555.283 C399.25,555.752 397.091,556.604 397.203,557.177 C397.452,558.452 379.303,564.06 361.5,568.208 C350.703,570.724 314.582,573.588 317.305,571.713 C318.126,571.148 313.859,570.578 305.805,570.178 C298.762,569.828 286.7,568.839 279,567.982 C271.3,567.124 260.809,565.999 255.686,565.481 C250.564,564.963 246.041,564.334 245.635,564.083 C245.229,563.833 240.87,563.106 235.948,562.468 C222.197,560.687 203.839,555.556 204.266,553.614 C204.412,552.949 203.962,552.497 203.266,552.61 C202.57,552.723 201.1,552.455 200,552.015 C198.9,551.575 192.045,548.871 184.766,546.008 C177.488,543.144 171.863,540.436 172.266,539.99 C172.67,539.544 172.418,539.515 171.706,539.926 C170.984,540.343 169.216,539.88 167.706,538.88 C166.218,537.895 162.3,535.669 159,533.934 C146.084,527.146 138.894,523.187 136.5,521.545 C135.125,520.602 131.922,518.844 129.382,517.64 C126.842,516.435 123.017,513.926 120.882,512.065 C118.747,510.204 114.3,506.353 111,503.508 C107.7,500.663 105,497.963 105,497.509 C105,497.054 101.947,494.326 98.215,491.445 C94.484,488.564 91.595,485.714 91.797,485.11 C91.998,484.507 90.551,482.742 88.581,481.189 C86.612,479.635 83.65,476.704 82,474.675 C80.35,472.646 77.875,469.808 76.5,468.368 C72.223,463.888 69.896,461.102 68.056,458.259 C67.08,456.751 65.931,455.734 65.502,455.999 C65.073,456.264 63.547,454.94 62.111,453.057 C59.319,449.397 58.783,447.939 60.655,449.095 C61.376,449.541 61.537,449.369 61.085,448.638 C60.687,447.994 59.993,447.695 59.542,447.974 C58.408,448.675 53.251,441.725 53.789,440.22 C54.029,439.549 53.601,437.763 52.837,436.25 C51.299,433.204 49.939,432.503 50.895,435.25 C51.403,436.709 51.255,436.677 50.002,435.059 C49.176,433.991 48.5,432.677 48.5,432.138 C48.5,431.599 47.89,430.447 47.145,429.579 C45.006,427.088 32.5,403.42 32.5,401.864 C32.5,400.297 38.752,410.014 40.968,415.022 C42.3,418.035 43.801,420.5 44.303,420.5 C44.805,420.5 46.85,423.087 48.847,426.25 C52.953,432.75 56.349,436.984 56.965,436.368 C57.193,436.14 56.169,434.071 54.69,431.769 C42.127,412.227 41.232,410.62 43.75,412.133 C44.61,412.649 44.574,412.359 43.637,411.203 C42.887,410.278 41.874,409.769 41.387,410.07 C40.899,410.371 40.5,409.567 40.5,408.282 C40.5,406.996 39.853,405.022 39.063,403.894 C38.273,402.766 37.758,400.978 37.919,399.921 C38.455,396.39 27.311,368.356 25.923,369.744 C25.451,370.216 28.117,378.733 29.722,381.882 C30.25,382.917 31.279,386.066 32.008,388.879 C33.16,393.32 33.148,393.739 31.918,392.057 C31.138,390.99 30.501,389.641 30.503,389.059 C30.506,387.983 26.044,376.434 24.4,373.264 C23.905,372.309 23.5,369.807 23.5,367.705 C23.5,365.602 22.839,363.009 22.032,361.941 C21.224,360.874 20.549,358.339 20.532,356.309 C20.514,354.279 19.997,352.307 19.382,351.927 C18.673,351.489 18.486,349.618 18.871,346.812 C19.204,344.379 18.965,339.151 18.339,335.194 C16.966,326.515 16.928,325.739 16.498,298 C16.31,285.9 16.483,272.85 16.883,269 C18.414,254.249 20.662,237.722 22.052,231 C22.847,227.15 23.485,223.1 23.469,222 C23.442,220.197 23.341,220.168 22.446,221.703 C20.553,224.95 17.279,243.032 14.607,265 L13.756,272 L13.628,261.184 C13.548,254.435 13.95,249.547 14.697,248.184 C15.355,246.983 16.201,242.175 16.578,237.5 C17.354,227.857 22.106,213.403 23.749,215.691 C24.457,216.677 24.561,216.598 24.171,215.369 C23.66,213.757 25.487,207.18 26.815,205.852 C27.192,205.475 27.5,204.132 27.5,202.867 C27.5,201.603 28.121,199.09 28.88,197.284 C29.639,195.478 30.794,192.2 31.446,190 C32.098,187.8 32.999,185.1 33.446,184 C35.061,180.035 37.275,173.895 39.038,168.5 C41.886,159.785 51.468,141.821 51.512,145.115 C51.518,145.602 52.975,143.75 54.75,141 C56.524,138.25 58.454,135.55 59.039,135 C61.402,132.778 67.312,124.791 68.956,121.599 C71.034,117.564 79.174,107.015 80.248,106.965 C81.923,106.886 85.522,104.344 85.047,103.576 C84.198,102.203 96.132,90.798 97.248,91.915 C97.645,92.312 96.886,93.455 95.56,94.454 C94.235,95.454 93.035,97.057 92.895,98.017 C92.754,98.977 91.176,101.271 89.388,103.116 C87.6,104.961 86.357,106.691 86.627,106.96 C87.156,107.49 93.633,100.042 97.179,94.825 C98.378,93.062 98.914,91.471 98.371,91.29 C97.827,91.109 100.946,87.494 105.3,83.256 C109.655,79.018 112.975,75.308 112.677,75.011 C112.016,74.35 121.628,65.31 126.65,61.868 C128.658,60.492 130.908,59.467 131.65,59.591 C133.787,59.946 136.553,58.395 135.84,57.241 C135.483,56.663 135.657,56.479 136.226,56.831 C136.796,57.183 138.944,56.134 141,54.5 C143.056,52.866 145.163,51.792 145.682,52.113 C146.201,52.433 147.385,52.018 148.313,51.19 C149.241,50.362 153.6,47.914 158,45.75 C166.446,41.597 176.786,35.471 177.314,34.309 C177.486,33.929 179.961,32.857 182.814,31.927 C185.666,30.997 188.45,29.892 189,29.472 C189.55,29.052 191.575,28.463 193.5,28.164 C201.197,26.967 216.743,21.94 222,18.948 C225.615,16.89 235.45,13.5 237.804,13.5 C240.207,13.5 236.062,16.309 232.902,16.822 C230.941,17.14 227.461,18.254 225.168,19.296 C222.876,20.338 219.704,21.727 218.121,22.383 C212.321,24.784 216.361,24.287 229.907,20.934 C237.537,19.045 244.761,17.5 245.961,17.5 C249.149,17.5 257.586,14.448 257.004,13.506 C256.442,12.597 260.586,12.005 278.4,10.449 C281.982,10.082 285.574,9.954 289.172,9.916 z M401,550.4 L398.5,550.88 C397.125,551.144 392.175,552.542 387.5,553.987 C382.825,555.432 377.2,557.065 375,557.615 C372.8,558.165 370.55,559.089 370,559.67 C369.31,560.398 369.62,560.557 371,560.183 C372.1,559.886 375.475,558.97 378.5,558.15 C392.053,554.473 396.164,553.175 398.5,551.835 L401,550.4 z M405.462,539.768 C402.683,540.387 400.043,541.503 397.42,542.588 C393.339,544.315 385.725,547.234 380.5,549.073 C369.631,552.898 369.639,553.442 380.52,550.428 C388.677,548.169 407.37,540.29 405.808,539.769 L405.462,539.768 z M222.659,539.7 L222.088,539.72 C220.94,539.895 224.95,541.335 231,542.92 C249.735,547.83 256.57,549.236 255.242,547.908 C254.916,547.583 251.129,546.497 246.825,545.494 C242.521,544.492 235.665,542.711 231.588,541.537 C228.666,540.662 225.687,540.039 222.659,539.7 z M211.279,521.213 L210.658,521.402 C209.39,522.186 211.805,523.066 230.345,528.572 C236.034,530.262 240.947,531.387 241.261,531.072 C241.576,530.757 241.11,530.5 240.226,530.5 C239.341,530.5 238.366,530.092 238.058,529.593 C237.284,528.342 241.656,529.496 243.5,531.03 C244.88,532.178 248.338,533.182 253.828,534.028 C255.023,534.212 258.7,535.053 262,535.896 C268.953,537.672 274.91,537.972 274,536.5 C273.66,535.95 273.81,535.5 274.334,535.5 C274.858,535.5 275.535,536.149 275.84,536.943 C276.377,538.342 279.312,538.788 290.5,539.172 C293.754,539.283 294.446,539.093 293,538.483 C291.9,538.02 289.499,537.609 287.664,537.57 C285.829,537.532 281.554,536.833 278.164,536.018 C264.593,532.754 256.761,531.306 254.928,531.721 C253.867,531.961 251.57,531.111 249.822,529.833 C248.074,528.554 246.01,527.751 245.236,528.048 C244.462,528.345 241.842,527.942 239.414,527.154 C236.986,526.365 233.65,525.438 232,525.094 C229.17,524.505 229.11,524.555 230.941,525.985 C233.63,528.083 231.548,527.878 225.993,525.497 C223.422,524.395 220.91,523.747 220.41,524.056 C219.909,524.365 219.5,524.089 219.5,523.442 C219.5,522.772 218.668,522.484 217.565,522.773 C216.5,523.051 214.785,522.687 213.753,521.964 C212.438,521.245 213.236,521.569 211.279,521.213 z M92.28,477.765 C92.053,477.858 92.091,477.775 92.138,478 C92.796,479.786 92.692,479.851 91.164,478.609 C89.668,477.391 89.534,477.424 90.091,478.876 C90.441,479.789 91.454,480.415 92.341,480.268 C93.229,480.12 93.981,480.45 94.013,481 C94.152,483.408 96.996,486.795 104.029,492.928 C108.173,496.543 112.28,499.5 113.154,499.5 C114.485,499.5 114.532,499.244 113.445,497.934 C112.73,497.073 110.861,495.704 109.29,494.891 C107.72,494.079 106.652,493.063 106.917,492.634 C107.183,492.205 103.8,488.286 99.4,483.927 C97.049,481.923 95.074,479.199 92.28,477.765 z M104.257,452.544 L104.116,452.573 C103.567,453.152 119.668,467.447 126.5,472.446 C129.525,474.66 132.89,477.161 133.978,478.005 C135.065,478.849 136.528,479.32 137.228,479.051 C137.927,478.782 138.501,478.886 138.502,479.281 C138.504,480.368 147.504,485.829 148.18,485.154 C148.503,484.83 149.893,485.451 151.269,486.533 C152.644,487.615 154.221,488.5 154.772,488.5 C155.324,488.5 154.085,487.157 152.018,485.515 C149.952,483.873 147.846,482.786 147.337,483.101 C146.828,483.415 143.893,481.599 140.814,479.064 C137.112,476.016 134.615,474.646 133.442,475.018 C132.467,475.328 131.382,475.118 131.032,474.552 C130.645,473.926 131.101,473.75 132.198,474.105 C133.449,474.508 133.235,474.051 131.5,472.611 C130.125,471.469 128.414,470.747 127.698,471.006 C126.982,471.265 126.647,471.071 126.953,470.576 C127.632,469.478 121.133,462.07 117,459.23 C114.061,457.21 114.071,457.246 117.5,461 L121,464.831 L117.66,462.416 C115.824,461.087 113.432,459.494 112.347,458.876 C111.261,458.258 109.056,456.491 107.447,454.949 C106.471,454.034 105.482,453.11 104.257,452.544 z M46.877,382.625 C46.492,382.7 46.611,382.585 46.555,383 C46.514,385.084 55.549,405.65 57.581,408.098 C59.427,410.322 59.672,409.736 58.146,406.75 C55.413,401.403 50.147,389.942 48.382,385.5 C48.008,384.47 47.522,383.508 46.877,382.625 z M40.775,337.607 C40.727,337.832 40.649,338.053 40.632,338.283 C40.448,340.8 40.812,343.602 41.071,346.059 C41.618,351.256 41.72,351.744 42.344,356.024 C43.362,362.547 46.147,370.186 47.144,369.189 C47.484,368.85 46.961,366.885 45.983,364.823 C45.005,362.762 44.091,358.583 43.953,355.537 C43.659,349.079 41.856,338.501 40.898,337.614 L40.775,337.607 z M573.019,202.741 L572.901,202.765 C572.426,203.24 579.127,234.601 580.964,240.5 C581.734,242.975 582.664,247.812 583.03,251.25 C583.397,254.688 584.102,257.5 584.598,257.5 C585.094,257.5 585.5,257.353 585.5,257.174 C585.5,253.479 581.917,233.607 579.97,226.5 C578.538,221.275 577,215.2 576.553,213 C575.77,210.275 574.889,204.816 573.019,202.741 z M47.368,231 L46.041,236 C45.31,238.75 44.458,243.925 44.146,247.5 L43.58,254 L45.499,246.5 C46.554,242.375 47.407,237.2 47.393,235 L47.368,231 z M568.844,201.823 C568.433,202.233 571.204,213.441 575.81,230 C577.604,236.452 577.764,231.316 575.985,224.352 C573.211,213.487 569.352,201.315 568.844,201.823 z M52.99,204.755 L52.537,204.977 C52.007,205.304 51.075,207.244 50.464,209.286 C48.439,216.062 45.5,227.736 45.532,228.877 C45.593,231.051 48.5,226.089 48.5,223.809 C48.5,222.539 48.959,221.5 49.519,221.5 C50.086,221.5 50.279,220.47 49.955,219.178 C49.629,217.879 50.281,214.466 51.436,211.428 C52.069,209.632 52.855,207.87 53.295,206.011 C53.304,205.973 53.526,205.058 53.372,204.868 C53.288,204.765 53.117,204.793 52.99,204.755 z M474.802,68.583 C474.746,68.636 474.615,68.667 474.635,68.741 C474.833,69.459 476.05,70.295 476.613,70.786 C493.877,85.416 506.754,97.513 513,104.969 C515.75,108.251 519.629,112.565 521.619,114.554 C523.61,116.544 527.584,121.395 530.45,125.336 C533.316,129.276 535.88,132.5 536.148,132.5 C536.416,132.5 536.35,131.488 536.002,130.25 C535.506,128.489 535.597,128.326 536.419,129.5 C536.997,130.325 537.476,132.039 537.485,133.309 C537.497,135.148 541.74,141.884 544.534,144.5 C547.116,146.917 555.36,160.276 560.46,170.308 C563.902,177.077 566.935,182.398 567.201,182.133 C567.466,181.867 565.43,177.004 562.677,171.325 C559.924,165.646 555.617,157.85 553.107,154 C548.455,146.865 547.562,144.802 549.697,146.122 C550.355,146.528 549.792,145.412 548.447,143.64 C544.739,138.758 542.341,135.232 538.555,129.089 C536.66,126.015 534.562,123.5 533.893,123.5 C533.224,123.5 530.062,120.012 526.866,115.75 C523.669,111.488 514.966,101.869 507.525,94.376 C500.084,86.884 494.672,80.983 495.498,81.264 C496.324,81.546 494.783,80.161 492.074,78.188 C489.364,76.215 486.797,74.816 486.369,75.081 C485.941,75.345 483.379,73.973 480.676,72.031 C478.793,70.796 476.986,69.253 474.802,68.583 z M546.583,150.674 C546.587,151.033 546.564,150.858 546.65,151.2 C547.479,154.042 561.029,179.277 561.31,178.5 C561.48,178.029 559.419,173.199 556.729,167.768 C554.324,163.014 551.802,158.306 548.963,153.795 C548.556,153.148 547.479,151.101 546.583,150.674 z M81.323,112.724 C80.747,112.82 81.005,112.727 80.541,112.975 C80.013,113.301 77.486,116.69 74.926,120.507 C70.052,127.771 66.53,131.588 67.781,128.25 C68.722,125.741 68.193,126.071 65.553,129.643 C64.275,131.371 63.798,132.434 64.494,132.004 C65.335,131.484 65.59,131.688 65.255,132.611 C64.977,133.375 64.269,133.896 63.68,133.768 C62.501,133.513 57.991,139.324 58.766,140.099 C59.033,140.366 60.199,139.102 61.358,137.292 C62.518,135.481 63.474,134.513 63.483,135.141 C63.492,135.768 61.932,138.468 60.016,141.141 C56.827,145.589 53.5,151.835 53.5,153.372 C53.5,153.717 56.913,148.825 61.084,142.5 C65.256,136.175 70.036,129.65 71.706,128 C73.699,126.031 72.736,127.902 68.902,133.445 C65.689,138.09 63.6,141.557 64.258,141.149 C65.857,140.161 75.574,127.027 78.424,122 L80.693,118 L77.512,121.5 C73.84,125.541 74.518,123.695 78.668,118.356 C79.344,117.296 82.251,113.933 81.323,112.724 z M145.445,58.801 C136.409,63.903 127.812,70.215 119.782,76.807 C114.461,81.299 104.547,91.615 103.258,94 C102.173,96.008 104.504,94 116,83.023 C119.3,79.872 127.288,73.229 133.75,68.26 C140.212,63.292 145.5,59.057 145.5,58.849 L145.445,58.801 z M194.815,38.5 L191.657,38.5 C189.921,38.5 187.682,39.287 186.683,40.25 C185.684,41.213 182.722,43.125 180.102,44.5 C175.78,46.767 173.532,48.5 174.912,48.5 C175.204,48.5 177.818,47.377 180.721,46.004 C183.625,44.631 187.983,42.381 190.407,41.004 L194.815,38.5 z M315,12.649 C311.889,12.642 311.445,12.832 313,13.5 C314.344,14.078 312.315,14.382 306.809,14.43 C302.304,14.468 298.346,14.94 298.014,15.477 C297.231,16.744 314.569,15.986 315.399,14.717 C315.73,14.213 316.675,13.543 317.5,13.229 C318.325,12.915 317.2,12.654 315,12.649 z M290.638,12.546 C287.675,12.706 283.303,12.25 280.5,13.5 C279.468,14.167 281.731,14.474 287.75,14.485 C292.927,14.494 296.5,14.092 296.5,13.5 C296.447,13.424 296.426,13.311 296.342,13.273 C294.628,12.498 292.453,12.632 290.638,12.546 z M179.856,546.908 L179.754,546.912 C179.575,547.091 181.132,547.994 183.214,548.918 C185.296,549.841 187.877,551.085 188.949,551.681 C190.021,552.278 193.846,553.798 197.449,555.058 C204,557.351 206.244,557.911 205.366,557.033 C203.613,555.802 201.066,555.052 199.143,554.263 C192.782,551.654 186.397,549.024 179.856,546.908 z M371.413,525.626 L370.5,525.783 C369.125,526.094 364.4,526.895 360,527.562 C355.6,528.23 350.65,529.124 349,529.548 L346,530.32 L349.5,530.357 C353.871,530.404 371.272,527.082 372.265,526.011 C372.626,525.459 371.653,525.645 371.413,525.626 z M364.658,131.5 C365.121,131.5 365.5,139.6 365.5,149.5 C365.5,163.288 365.208,167.476 364.25,167.397 C362.333,167.238 347.474,162.807 346.885,162.218 C346.599,161.933 347.551,159.359 349,156.5 C352.242,150.102 353.305,150.456 350.5,157 C349.372,159.631 348.625,161.959 348.84,162.173 C349.238,162.572 353.263,154.508 360.032,139.75 C362.113,135.213 364.194,131.5 364.658,131.5 z M427.217,198.712 C428.181,198.852 429.102,199.131 430.005,199.502 C434.557,201.232 456.392,215.275 465,222.007 C484.8,237.492 495.203,252.049 502.963,275.125 C504.465,279.594 505.515,284.094 505.295,285.125 C505.036,286.335 504.636,285.699 504.167,283.33 C502.929,277.083 493.176,259.227 485.918,249.918 C472.335,232.497 453.242,215.722 432.251,202.765 C431.422,202.247 427.139,199.835 427.005,198.878 C426.992,198.789 427.146,198.767 427.217,198.712 z M375.051,251.717 C375.807,252.473 378.323,284.694 377.748,286.25 C376.574,289.425 375.75,286.723 375.156,277.75 C374.364,265.788 374.304,250.971 375.051,251.717 z M274.957,162.669 C281.802,162.759 278.788,162.693 284,162.833 C299.919,163.301 321.634,166.321 323.737,168.36 C324.143,168.753 320.368,176.033 315.348,184.537 C310.328,193.042 303.728,204.275 300.681,209.5 C289.065,229.422 283.635,237.432 265.231,261.798 C257.954,271.432 249.3,282.929 246,287.347 C242.7,291.766 239.55,295.385 239,295.39 C237.009,295.41 218.804,288.412 210.572,284.464 C190.482,274.828 177.071,260.834 172.895,245.15 C168.086,227.087 177.602,207.636 198,193.836 C217.992,180.311 249.385,170.795 279.5,169.133 C283.075,168.935 279.7,168.908 272,169.072 C262.558,169.274 254.787,170.058 248.131,171.48 C224.994,176.425 199.303,187.439 188.575,197.012 C179.353,205.241 179.829,203.543 189.283,194.486 C202.153,182.155 214.786,175.63 238,169.32 C250.094,166.041 262.301,162.433 274.957,162.669 z M344.136,173.672 C346.754,173.879 349.45,174.848 351.952,175.553 C355.931,176.676 360.039,177.734 363.811,179.434 C364.257,179.867 364.815,185.122 365.051,191.111 C365.823,210.685 367.576,241.611 369.052,261.718 C369.848,272.563 370.5,282.126 370.5,282.968 C370.5,285.617 372.347,284.631 372.784,281.75 C373.046,280.016 373.256,280.725 373.35,283.668 L373.5,288.337 L367.25,290.33 C348.273,296.383 339.11,298.356 320.5,300.401 C307.406,301.839 290.5,302.373 290.5,301.348 C290.5,300.882 291.737,300.457 293.25,300.404 C294.763,300.351 298.25,299.696 301,298.948 L306,297.588 L301.5,298.044 C284.181,299.802 271.39,300.548 267.778,300.012 L263.556,299.386 L268.419,293.193 C273.578,286.621 288.844,264.624 290.692,261.097 C291.78,259.021 291.77,259.019 289.646,260.905 C288.465,261.953 287.5,262.582 287.5,262.304 C287.5,261.725 291.029,255.11 294.865,248.5 C297.625,243.743 298.149,241.981 296.5,243 C294.643,244.148 295.484,241.825 297.62,239.905 C298.786,238.857 302.225,234.175 305.262,229.5 C318.503,209.117 325.627,198.5 326.064,198.5 C326.938,198.5 316.602,217.563 308.307,231.25 C307.223,233.038 306.546,234.5 306.802,234.5 C307.906,234.5 323.702,209.505 333.346,192.5 C339.117,182.325 343.934,173.866 344.051,173.702 L344.136,173.672 z M510.458,287.906 C512.087,292.053 511.764,298.547 512.222,303 C512.689,313.341 512.462,316.1 510.579,322.955 C509.377,327.33 506.842,333.855 504.945,337.455 C503.049,341.055 500.364,345.35 498.979,347 L496.461,350 L498.503,346.379 C505.073,334.731 509.703,314.044 509.668,296.5 C509.673,294.22 509.562,290.436 510.1,288.341 C510.147,288.159 510.339,288.051 510.458,287.906 z M394.5,191.471 L400.688,194.595 C413.348,200.986 432.788,215.757 443.532,227.149 C460.693,245.345 468.689,263.836 468.765,285.5 C468.811,298.567 466.98,305.951 460.776,317.718 C453.161,332.16 442.074,344.639 428,354.609 C419.2,360.842 413.53,363.749 413.001,362.299 C412.74,361.585 410.718,353.125 408.507,343.5 C406.297,333.875 403.768,323.075 402.888,319.5 C402.008,315.925 400.706,310.525 399.996,307.5 C398.171,299.726 398.18,304.965 400.019,320.5 C400.833,327.375 401.711,335.25 401.97,338 C402.792,346.733 398.723,329.309 397.033,316.861 C395.705,307.08 395.597,306.746 395.946,313.5 C396.477,323.79 394.812,319.259 393.425,306.642 C392.842,301.339 391.922,294.994 391.382,292.543 C390.483,288.468 390.596,287.933 392.699,286.315 C393.965,285.341 395.562,284.534 396.25,284.522 C396.938,284.51 397.5,284.122 397.5,283.661 C397.5,283.199 398.687,282.28 400.139,281.619 C403.304,280.177 419.272,268.678 420.204,267.17 C420.566,266.585 419.542,267.039 417.931,268.179 C413.685,271.181 399.119,278.349 396.183,278.881 C394.804,279.131 392.736,279.839 391.588,280.453 C388.684,282.007 388.97,280.373 392,278.097 C393.798,276.747 394.5,275.277 394.5,272.86 C394.5,268.559 396.233,268.476 396.817,272.75 C397.323,276.451 396.867,260.085 395.473,224.5 C394.945,211.025 394.51,198.081 394.507,195.736 L394.5,191.471 z M386.69,290.611 C386.826,290.813 387.131,290.975 387.098,291.216 C386.992,292.001 386.177,292.767 385.683,293.317 C384.241,294.759 383.4,295 382.6,294.2 C381.8,293.4 381.5,293.58 381.5,294.858 C381.5,298.208 383.623,311.082 387.108,328.862 C389.034,338.686 390.415,346.919 390.177,347.156 C389.94,347.394 388.74,343.518 387.511,338.544 C386.282,333.57 385.096,329.5 384.876,329.5 C384.656,329.5 384.7,331.413 384.972,333.75 C385.378,337.228 385.292,337.546 384.499,335.5 C382.599,330.598 384.429,344.089 386.933,353.447 C388.271,358.445 388.945,362.275 388.433,361.958 C387.118,361.146 387.35,364.333 388.926,368.75 C389.662,370.812 389.939,372.5 389.54,372.5 C388.614,372.5 386.767,366.301 385.965,360.5 C385.622,358.025 384.283,351.5 382.989,346 C381.695,340.5 379.83,331.5 378.846,326 C377.862,320.5 376.898,316.791 376.703,317.759 C376.209,320.218 381.091,353.068 383.62,364.309 C384.773,369.429 385.554,373.742 385.358,373.894 C385.161,374.046 380.699,374.919 375.442,375.835 C368.33,377.074 360.656,377.457 345.442,377.332 C320.852,377.13 320.396,377.093 304,373.988 C290.791,371.486 273.074,366.502 259.5,361.47 C255.375,359.941 245.925,356.78 238.5,354.446 C231.075,352.111 224.803,350.034 224.562,349.83 C224.322,349.625 225.939,347.555 228.157,345.229 C232.469,340.708 240.015,330.923 242.988,326 C244.363,323.723 243.779,324.084 240.563,327.5 C238.233,329.975 237.292,330.65 238.472,329 C239.652,327.35 241.519,324.566 242.62,322.813 L244.623,319.627 L253.311,320.313 C267.313,321.42 299.353,321.009 307,319.626 C319.712,317.325 334.505,314.172 334.167,313.834 C333.985,313.651 329.147,314.146 323.418,314.933 C317.688,315.721 308.275,316.6 302.5,316.887 L292,317.41 L302.5,315.921 C321.497,313.228 347.032,306.176 368.815,297.607 C370.363,296.998 371.986,296.5 372.422,296.5 C372.857,296.5 373.503,299.538 373.858,303.25 C374.795,313.068 376.644,318.191 375.933,309 C375.635,305.15 375.143,300.553 374.84,298.784 C374.332,295.815 374.586,295.439 378.145,293.895 C380.265,292.975 383.012,291.759 384.248,291.193 C385.036,290.856 385.805,290.523 386.69,290.611 z M176.711,353.46 C181.165,353.83 179.332,353.515 182.25,354.13 C185.264,354.938 185.087,355.722 181.398,357.901 C179.692,358.909 174.854,362.203 170.648,365.221 C159.847,372.971 155.195,375.541 146.219,378.717 C137.329,381.863 128.802,382.45 127.855,379.982 C126.211,375.697 134.901,365.385 143.761,361.107 C154.091,356.397 165.33,353.572 176.711,353.46 z M476.335,373.137 C476.392,373.166 476.511,373.161 476.507,373.225 C476.44,374.139 474.535,375.335 474,376.036 C462.493,386.602 451.188,393.709 437.288,399.113 C427.719,402.833 426.924,402.996 425.959,401.433 C425.091,400.03 424.626,400.295 435.5,395.993 C451.671,389.594 465.294,382.157 473,375.52 C474.041,374.642 475.078,373.692 476.335,373.137 z M376.394,48.658 L375.708,48.701 C372.778,49.063 370.606,54.164 368.111,66.543 C366.649,73.802 362.326,85.442 349.189,117.5 C343.393,131.642 342.551,133.557 336.759,145.75 C330.69,158.524 330.755,158.473 323,156.5 L320,155.737 L323.5,155.588 C329.45,155.335 325.063,153.934 308,150.638 C284.431,146.084 274.989,145.177 258,145.833 C244.326,146.361 220.452,149.638 209.196,152.531 C193.335,156.607 179.284,162.502 166.115,170.607 C161.294,173.573 155.15,177.35 152.459,179 C140.579,186.286 126.643,203.201 121.64,216.407 C115.388,232.91 120.609,255.158 134.027,269.182 L139.593,275 L135.545,269.5 C122.713,252.066 120.009,225.119 129.538,209.637 C132.645,204.589 132.756,206.301 129.79,213.548 C127.609,218.879 127.077,221.998 126.727,231.5 C126.361,241.458 126.59,243.757 128.434,248.644 C131.502,256.773 139.833,270.217 145.296,275.855 C157.536,288.488 187.5,304.156 214.989,312.297 L224.448,315.099 L210.724,329.377 L197,343.656 L187.5,342.082 C166.034,338.525 146.357,341.155 124.279,350.532 C105.738,358.406 92.5,372.855 92.5,385.218 C92.5,392.433 102.249,405.528 110.923,409.964 C115.93,412.525 118.094,412.993 126.483,413.33 C134.794,413.664 137.582,413.332 145.448,411.069 C163.83,405.78 181.212,395.281 197.384,379.698 L206,371.396 L198.599,377.445 C187.406,386.594 172.144,396.407 162.571,400.609 C149.783,406.223 146.685,406.326 157,400.795 C165.887,396.029 169.807,393.445 184.5,382.671 C193.452,376.106 208.494,363.306 208.497,362.25 C208.503,360.526 213.231,361.791 224.766,366.602 C237.185,371.782 259.953,383.38 259.193,384.14 C258.964,384.369 257.477,384.039 255.889,383.408 C249.268,380.777 231.5,374.784 231.5,375.182 C231.5,375.419 233.638,376.548 236.25,377.692 C238.862,378.835 248.711,383.262 258.136,387.528 C283.217,398.882 294.826,402.947 322.5,410.068 C348.424,416.738 377.529,418.235 398.5,413.977 C400.804,413.509 401.409,414.273 406.226,423.735 C409.101,429.381 412.604,435.35 414.012,437 C415.838,439.141 415.554,438.361 413.019,434.273 C409.293,428.265 407.156,423.511 407.862,422.804 C408.092,422.574 412.653,428.824 417.997,436.693 C427.651,450.907 438.576,463.175 451,473.754 L457,478.863 L450.393,471.931 C442.819,463.985 431.009,449.386 428.978,445.457 C428.22,443.992 424.957,438.789 421.726,433.896 C414.9,423.557 408.969,412.697 409.733,411.934 C410.025,411.642 411.942,414.463 413.994,418.202 C416.046,421.941 419.82,427.7 422.38,431 C424.941,434.3 427.791,438.125 428.714,439.5 C431.602,443.803 453.639,465.956 461.667,472.628 C474.493,483.286 479.392,486.613 497.772,497.14 C506.238,501.989 505.5,501.617 505.5,501.037 C505.5,500.783 502.688,498.671 499.25,496.344 C490.959,490.731 478.339,479.568 465.686,466.655 C452.871,453.576 450.139,448.958 462.045,460.5 L470.813,469 L463.823,460.932 C455.274,451.066 449.996,443.979 444.446,434.914 C438.68,425.496 429.5,408.846 429.5,407.806 C429.5,407.34 434.622,404.817 440.883,402.199 C453.538,396.909 469.489,387.177 480.742,377.881 C494.332,366.655 507.203,348.018 513.119,331 C515.669,323.665 515.904,321.753 515.946,308 C515.988,294.585 515.7,291.952 513.225,283.08 C508.24,265.213 497.435,248.176 480.556,231.563 C472.363,223.499 455.702,210.654 449.11,207.318 C446.849,206.175 443.875,204.449 442.5,203.483 C436.227,199.078 408.28,184.472 399.26,180.885 L394.52,179 L394.76,125 C394.944,83.671 394.703,70.061 393.735,67 C392.116,61.881 388.332,57.616 384.78,56.906 C382.787,56.507 381.447,55.221 380.064,52.376 C379.221,50.722 378.463,48.862 376.394,48.658 z M124.136,261.065 C124.074,261.071 123.95,261.023 123.951,261.084 C123.964,261.744 124.796,262.843 125.023,263.5 C128.786,271.022 136.226,279.519 145.5,286.89 C153.891,293.559 155.812,294.768 169,301.684 C175.05,304.857 180.45,307.457 181,307.461 C181.55,307.466 177.275,304.956 171.5,301.884 C153.568,292.346 142.267,283.275 131.261,269.586 C128.942,266.704 126.698,263.734 124.136,261.065 z M559.09,197.698 C558.496,198.079 558.755,197.872 558.299,198.301 C557.38,199.22 557.369,200.263 558.25,202.751 C560.151,208.116 563.276,220.576 564.457,227.5 C565.067,231.075 565.812,235.238 566.112,236.75 C566.413,238.262 567.062,239.5 567.554,239.5 C568.047,239.5 568.258,238.262 568.024,236.75 C567.789,235.238 567.355,231.167 567.059,227.704 C566.763,224.241 566.053,220.534 565.481,219.465 C564.118,216.918 559.5,200.951 559.5,198.785 C559.488,198.386 559.6,197.798 559.09,197.698 z M548.953,172.58 C548.237,172.609 548.469,172.437 548.164,172.934 C547.425,174.859 548.398,177.681 549.555,176.966 C550.019,176.679 550.872,177.327 551.45,178.406 C552.981,181.267 552.675,182.316 550.968,180.059 C548.518,176.82 549.293,179.053 553.704,187.948 C556.017,192.61 558.02,196.314 558.156,196.178 C558.291,196.042 557.268,192.224 555.881,187.694 C554.203,182.545 552.663,176.676 548.953,172.58 z" fill="#000000"/>
  </g>
</svg>
